# xmcd
#
# Track frame offsets: 
#        187
#        16942
#        33272
#        49557
#        63775
#        78685
#        94082
#        110752
#        124957
#        140145
#
# Disc length: 2060 seconds
#
# Revision: 3
# Processed by: cddbd v1.5.1PL0 Copyright (c) Steve Scherf et al.
# Submitted via: ExactAudioCopy v0.95a5
#
DISCID=85080a0a
DTITLE=Lee Greenwood - Greatest Hits
DYEAR=1985
DGENRE=Country
TTITLE0=Fool's Gold
TTITLE1=Somebody's Gonna Love You
TTITLE2=It Turns Me Inside Out
TTITLE3=She's Lying
TTITLE4=Dixie Road
TTITLE5=Ain't No Trick (It Takes Magic)
TTITLE6=Ring On Her Finger, Time On Her Hands
TTITLE7=I.O.U.
TTITLE8=Going, Going, Gone
TTITLE9=God Bless The USA
EXTD=
EXTT0=
EXTT1=
EXTT2=
EXTT3=
EXTT4=
EXTT5=It Takes Magic
EXTT6=
EXTT7=
EXTT8=
EXTT9=
PLAYORDER=
